<?xml version="1.0" encoding="utf-8"?>
<!-- Generator: Adobe Illustrator 23.0.3, SVG Export Plug-In . SVG Version: 6.00 Build 0)  -->
<svg version="1.1" id="Layer_1" xmlns="http://www.w3.org/2000/svg" xmlns:xlink="http://www.w3.org/1999/xlink" x="0px" y="0px"
	 viewBox="0 0 512 512" style="enable-background:new 0 0 512 512;" xml:space="preserve">
<style type="text/css">
	.st0{fill:#FFFFFF;}
</style>
<g>
	<path class="st0" d="M173,251.1c-3.7,0-7.2-2.1-8.8-5.6c-2.3-4.9-0.2-10.7,4.7-13c26.1-12.2,53.9-28.9,80.4-48.4
		c27.8-20.4,52.1-42,70.2-62.3c3.6-4,9.8-4.4,13.8-0.8c4,3.6,4.4,9.7,0.8,13.8c-19,21.3-44.3,43.8-73.2,65.1
		c-27.5,20.2-56.4,37.6-83.7,50.3C175.8,250.8,174.4,251.1,173,251.1z M113.3,170.2c-2.4,0-4.7-0.8-6.6-2.6c-4-3.6-4.2-9.8-0.6-13.8
		c19.9-21.7,45.4-44.2,73.7-65c27.5-20.2,56.5-37.6,83.7-50.3c4.8-2.3,10.7-0.2,12.9,4.7c2.3,4.9,0.2,10.7-4.7,12.9
		c-26.1,12.2-53.9,28.9-80.4,48.4c-27.3,20-51.8,41.6-70.9,62.4C118.6,169.2,115.9,170.2,113.3,170.2z"/>
	<path class="st0" d="M142.6,285.5c-3,0-5.9-1.4-7.9-4l-71.1-97c-1.5-2.1-2.2-4.7-1.8-7.3c0.4-2.6,1.8-4.9,3.9-6.4l36.1-26.4
		c4.3-3.2,10.4-2.2,13.6,2.1l71.2,97c1.5,2.1,2.2,4.7,1.8,7.3c-0.4,2.5-1.8,4.8-3.9,6.4l-36.2,26.4
		C146.6,284.9,144.6,285.5,142.6,285.5z M85.1,181l59.6,81.2l20.4-14.9l-59.6-81.2L85.1,181z"/>
	<path class="st0" d="M333.1,146.1c-3,0-5.9-1.4-7.9-4l-71.2-97c-1.5-2.1-2.2-4.7-1.8-7.3c0.4-2.5,1.8-4.8,3.9-6.4l36.2-26.4
		c4.3-3.1,10.4-2.2,13.6,2.1l71.1,97c1.5,2.1,2.2,4.7,1.8,7.3c-0.4,2.6-1.8,4.9-3.9,6.4l-36.1,26.4
		C337.1,145.5,335.1,146.1,333.1,146.1z M275.6,41.5l59.6,81.2l20.4-14.9l-59.6-81.2L275.6,41.5z"/>
	<path class="st0" d="M461.5,508.6c-1.7,0-3.3-0.1-5-0.4c-9.6-1.4-18.1-6.4-24-14.3c-5.9-7.9-48.2-73.6-74.8-121.6
		c-2.6-4.7-0.9-10.7,3.8-13.3c4.7-2.6,10.7-0.9,13.3,3.8c26.7,48.3,68.7,113.2,73.3,119.4c2.7,3.7,6.7,6,11.1,6.7
		c4.1,0.5,8.1-0.5,11.3-2.9c3.5-2.6,5.7-6.4,6.3-10.6c0.6-4.2-0.5-8.4-3.1-11.9c-4.8-6.4-54.2-66.2-91.7-105.9
		c-3.7-3.9-3.5-10.1,0.4-13.8c3.9-3.7,10.1-3.5,13.8,0.4c38.7,41,88,100.7,93.1,107.6c5.7,7.6,8.1,17,6.8,26.4
		c-1.3,9.4-6.3,17.7-13.9,23.4C476.3,506.2,469,508.6,461.5,508.6z"/>
	<path class="st0" d="M350.3,389.4c-0.5,0-1,0-1.5-0.1c-2.6-0.4-4.9-1.8-6.4-3.9l-22.4-31c-3.1-4.3-2.2-10.4,2.1-13.6l54.5-40.1
		c4.3-3.2,10.3-2.3,13.6,2l22.9,30.4c1.6,2.1,2.2,4.7,1.9,7.3c-0.4,2.6-1.8,4.9-3.9,6.4l-55.1,40.7
		C354.4,388.7,352.3,389.4,350.3,389.4z M341.5,350.8l11,15.2l39.2-29l-11.2-14.8L341.5,350.8z"/>
	<path class="st0" d="M250.4,252.8c-0.5,0-1,0-1.5-0.1c-2.6-0.4-4.9-1.8-6.4-3.9L219,216.7c-3.2-4.3-2.2-10.4,2.1-13.6
		c4.3-3.2,10.5-2.3,13.6,2.1l17.7,24.2l38.9-28.7L274,176.5c-3.1-4.4-2.1-10.5,2.3-13.6c4.4-3.1,10.5-2.1,13.6,2.3l22.9,32.1
		c3.1,4.3,2.1,10.4-2.2,13.5l-54.5,40.2C254.5,252.2,252.5,252.8,250.4,252.8z"/>
	<path class="st0" d="M342.2,347.5c-3,0-5.9-1.4-7.9-4L256.9,238c-3.2-4.3-2.3-10.5,2.1-13.6c4.3-3.1,10.4-2.3,13.6,2.1L350.1,332
		c3.2,4.3,2.3,10.5-2.1,13.6C346.3,346.9,344.2,347.5,342.2,347.5z"/>
	<path class="st0" d="M368,328.6c-3,0-5.9-1.4-7.9-4L282.7,219c-3.2-4.3-2.3-10.5,2.1-13.6c4.3-3.1,10.4-2.3,13.6,2.1L375.9,313
		c3.2,4.3,2.3,10.5-2.1,13.6C372.1,328,370.1,328.6,368,328.6z"/>
	<path class="st0" d="M212,508.7H23.2c-5.4,0-9.7-4.3-9.7-9.7v-21.8c0-16.8,14.2-31,31-31h146.3c16.8,0,31,14.2,31,31V499
		C221.7,504.4,217.4,508.7,212,508.7z M33,489.2h169.3v-12.1c0-6.1-5.4-11.5-11.5-11.5H44.5c-6.1,0-11.5,5.4-11.5,11.5V489.2z"/>
	<path class="st0" d="M185.6,434.1H49c-5.4,0-9.7-4.3-9.7-9.7c0-5.4,4.3-9.7,9.7-9.7h136.6c5.4,0,9.7,4.3,9.7,9.7
		C195.3,429.8,191,434.1,185.6,434.1z"/>
</g>
</svg>
