<?xml version="1.0" encoding="utf-8"?>
<!-- Generator: Adobe Illustrator 22.1.0, SVG Export Plug-In . SVG Version: 6.00 Build 0)  -->
<svg version="1.1" id="Layer_1" xmlns="http://www.w3.org/2000/svg" xmlns:xlink="http://www.w3.org/1999/xlink" x="0px" y="0px"
	 viewBox="0 0 200 200" style="enable-background:new 0 0 200 200;" xml:space="preserve">
<style type="text/css">
	.st0{fill:#FFFFFF;}
</style>
<g>
	<path class="st0" d="M70.5,94.8c-8.9,0-17.3,3.5-23.5,9.8c-6.3,6.3-9.8,14.6-9.8,23.5c0,8.9,3.5,17.3,9.8,23.5
		c6.3,6.3,14.6,9.8,23.5,9.8c8.9,0,17.3-3.5,23.5-9.8c6.3-6.3,9.8-14.6,9.8-23.5c0-8.9-3.5-17.3-9.8-23.5
		C87.8,98.3,79.4,94.8,70.5,94.8z M70.5,101.1c7.2,0,14,2.8,19.1,7.9c10.5,10.5,10.5,27.7,0,38.2c-10.5,10.5-27.7,10.5-38.2,0
		c-10.5-10.5-10.5-27.7,0-38.2C56.5,103.9,63.3,101.1,70.5,101.1z"/>
	<path class="st0" d="M126.5,115.3H121c-0.1,0-0.2-0.1-0.2-0.3c-1.2-4.6-3-9-5.5-13.1c-0.1-0.1-0.1-0.2,0-0.3l4-4
		c1.2-1.2,1.9-2.9,1.9-4.6c0-1.7-0.7-3.4-1.9-4.6l-9.1-9.1c-1.2-1.2-2.9-1.9-4.6-1.9c-1.7,0-3.4,0.7-4.6,1.9l-4.1,4.1
		c-0.1,0.1-0.2,0-0.3,0c-4.1-2.3-8.4-4.1-13-5.2c-0.1,0-0.2-0.1-0.2-0.2v-6c0-3.6-2.9-6.5-6.5-6.5H63.9c-3.6,0-6.5,2.9-6.5,6.5v6.5
		c0,0.1-0.1,0.2-0.2,0.2c-4.3,1.2-8.5,3-12.3,5.3c-0.1,0.1-0.3,0.1-0.4,0l-4.7-4.7c-1.2-1.2-2.9-1.9-4.6-1.9c-1.7,0-3.4,0.7-4.6,1.9
		l-9.1,9.1c-1.2,1.2-1.9,2.9-1.9,4.6c0,1.7,0.7,3.4,1.9,4.6l5,5c0.1,0.1,0.1,0.2,0,0.3c-2.1,3.8-3.8,7.8-4.8,12
		c0,0.2-0.1,0.3-0.2,0.3h-7.2c-3.6,0-6.5,2.9-6.5,6.5v12.8c0,3.6,2.9,6.5,6.5,6.5h7.4c0.1,0,0.2,0.1,0.2,0.3
		c1.1,4.1,2.8,8.1,4.9,11.8c0.1,0.1,0.1,0.3,0,0.4l-5.2,5.2c-2.5,2.5-2.5,6.7,0,9.2l9.1,9.1c2.4,2.4,6.8,2.4,9.2,0l5-5
		c0.1-0.1,0.2-0.1,0.4,0c3.7,2.2,7.8,3.9,12,5.1c0.1,0,0.3,0.1,0.3,0.2v6.9c0,3.6,2.9,6.5,6.5,6.5h12.8c3.6,0,6.5-2.9,6.5-6.5v-6.5
		c0-0.1,0.1-0.2,0.3-0.2c4.4-1.1,8.6-2.8,12.6-5c0.1-0.1,0.3-0.1,0.3,0l4.4,4.4c2.4,2.4,6.7,2.4,9.2,0l9.1-9.1
		c2.5-2.5,2.5-6.7,0-9.2l-4-4c-0.1-0.1-0.1-0.3-0.1-0.3c2.4-4,4.3-8.4,5.5-13c0-0.2,0.1-0.3,0.2-0.3h5.6c3.6,0,6.5-2.9,6.5-6.5
		v-12.8C133,118.2,130,115.3,126.5,115.3z M114.5,139.8c-1.1,4-2.7,7.8-4.9,11.4c-1.5,2.6-1.1,5.9,1,8l4,4c0.1,0.1,0.1,0.2,0,0.3
		l-9.1,9.1c-0.1,0.1-0.3,0.1-0.3,0l-4.4-4.4c-2.1-2.1-5.2-2.5-7.8-1c-3.5,1.9-7.2,3.4-11,4.4c-3,0.7-5,3.3-5,6.3v6.5
		c0,0.1-0.1,0.2-0.2,0.2H63.9c-0.1,0-0.2-0.1-0.2-0.2v-6.9c0-2.9-1.9-5.5-4.8-6.3c-3.7-1-7.2-2.6-10.5-4.5c-1-0.6-2.2-0.9-3.4-0.9
		c-1.7,0-3.4,0.7-4.6,1.9l-5,5c-0.1,0.1-0.3,0.1-0.3,0l-9.1-9.1c-0.1-0.1-0.1-0.3,0-0.3l5.2-5.2c2.1-2.1,2.5-5.3,1-7.9
		c-1.9-3.3-3.3-6.7-4.3-10.3c-0.8-2.9-3.4-4.9-6.3-4.9h-7.4c-0.1,0-0.2-0.1-0.2-0.2v-12.8c0-0.1,0.1-0.2,0.2-0.2h7.2
		c2.9,0,5.5-2,6.3-4.9c0.9-3.6,2.4-7.1,4.3-10.5c1.4-2.6,1-5.8-1-7.9l-5-5c0,0-0.1-0.1-0.1-0.2c0-0.1,0-0.1,0.1-0.2l9.1-9.1
		c0,0,0.1-0.1,0.2-0.1c0,0,0,0,0,0c0.1,0,0.1,0,0.2,0.1l4.7,4.7c2.1,2.1,5.4,2.5,8,0.9c3.3-2,7-3.6,10.8-4.6
		c2.9-0.8,4.8-3.3,4.8-6.3v-6.5c0-0.1,0.1-0.2,0.2-0.2h12.8c0.1,0,0.2,0.1,0.2,0.2v6c0,3,2.1,5.6,5,6.3c4,1,7.8,2.5,11.4,4.5
		c2.6,1.5,5.8,1,7.8-1l4.1-4.1c0,0,0.1-0.1,0.2-0.1c0.1,0,0.1,0,0.2,0.1l9.1,9.1c0,0,0.1,0.1,0.1,0.2c0,0.1,0,0.1-0.1,0.2l-4,4
		c-2.1,2.1-2.5,5.3-0.9,7.9c2.1,3.6,3.7,7.5,4.8,11.5c0.8,2.9,3.4,5,6.3,5h5.5c0.1,0,0.2,0.1,0.2,0.2v12.8c0,0.1-0.1,0.2-0.2,0.2
		h-5.6C117.9,134.9,115.3,136.9,114.5,139.8z"/>
	<path class="st0" d="M191.7,41.5l-2.2-6.1c-0.5-1.4-1.8-2.2-3.3-2.1l-9.7,1c-1.9-2.8-4.1-5.2-6.7-7.4l1.8-9.6
		c0.3-1.4-0.5-2.8-1.8-3.4l-5.9-2.8c-1.3-0.6-2.8-0.3-3.8,0.8l-6.2,7.6c-3.3-0.6-6.6-0.8-10-0.4l-5.5-8.1c-0.8-1.2-2.3-1.7-3.7-1.2
		l-6.1,2.2c-1.3,0.5-2.2,1.8-2.1,3.3l1,9.7c-2.8,1.9-5.3,4.1-7.4,6.7l-9.6-1.8c-1.4-0.3-2.8,0.5-3.4,1.8l-2.8,5.9
		c-0.6,1.3-0.3,2.8,0.9,3.7l7.6,6.2c-0.6,3.3-0.8,6.6-0.4,10l-8.1,5.5c-1.2,0.8-1.7,2.3-1.2,3.7l2.2,6.1c0.5,1.3,1.8,2.2,3.3,2.1
		l9.7-1c1.9,2.8,4.1,5.3,6.7,7.4l-1.8,9.6c-0.3,1.4,0.5,2.8,1.8,3.4l5.9,2.8c1.3,0.6,2.8,0.3,3.8-0.8l6.2-7.6
		c3.3,0.6,6.6,0.8,10,0.4l5.5,8.1c0.6,0.9,1.6,1.4,2.6,1.4c0.4,0,0.7-0.1,1.1-0.2l6.1-2.2c1.3-0.5,2.2-1.8,2.1-3.3l-1-9.7
		c2.8-1.9,5.3-4.1,7.4-6.7l9.6,1.8c1.4,0.3,2.8-0.5,3.4-1.8l2.8-5.9c0.6-1.3,0.3-2.8-0.8-3.8l-7.6-6.2c0.6-3.3,0.8-6.6,0.4-10
		l8.1-5.5C191.7,44.3,192.1,42.8,191.7,41.5z M160.8,81.9l0.9,9.2l-1.6,0.6l-5.2-7.7c-0.6-0.9-1.6-1.4-2.6-1.4c-0.2,0-0.3,0-0.5,0
		c-3.8,0.6-7.7,0.4-11.4-0.5c-1.2-0.3-2.4,0.1-3.2,1l-5.9,7.2l-1.5-0.7l1.7-9.1c0.2-1.2-0.3-2.4-1.2-3.1c-3.1-2.3-5.7-5.1-7.7-8.5
		c-0.6-1-1.8-1.6-3-1.5l-9.2,0.9l-0.6-1.6l7.7-5.2c1-0.7,1.5-1.9,1.3-3.1c-0.6-3.8-0.4-7.7,0.5-11.4c0.3-1.2-0.1-2.4-1.1-3.2L111,38
		l0.7-1.5l9.1,1.7c1.2,0.2,2.4-0.3,3.1-1.2c2.3-3.1,5.1-5.7,8.5-7.7c1-0.6,1.6-1.8,1.5-3l-0.9-9.2l1.6-0.6l5.2,7.7
		c0.7,1,1.9,1.5,3.1,1.3c3.8-0.6,7.7-0.4,11.4,0.5c1.2,0.3,2.4-0.1,3.2-1.1l5.9-7.2l1.5,0.7l-1.7,9.1c-0.2,1.2,0.3,2.4,1.2,3.1
		c3.1,2.3,5.7,5.1,7.7,8.5c0.6,1.1,1.8,1.6,3,1.5l9.2-0.9l0.6,1.6l-7.7,5.2c-1,0.7-1.5,1.9-1.3,3.1c0.6,3.8,0.4,7.7-0.5,11.4
		c-0.3,1.2,0.1,2.4,1.1,3.2l7.2,5.9l-0.7,1.5l-9.1-1.7c-1.2-0.2-2.4,0.3-3.1,1.2c-2.3,3.1-5.1,5.7-8.5,7.7
		C161.2,79.5,160.6,80.7,160.8,81.9z"/>
	<path class="st0" d="M167.7,46.7c-2-5.4-5.9-9.8-11.2-12.2c-5.2-2.4-11.1-2.7-16.5-0.7c-5.4,2-9.8,5.9-12.2,11.2
		c-2.4,5.2-2.7,11.1-0.7,16.5c2,5.4,5.9,9.8,11.2,12.2c2.9,1.4,6,2,9.2,2c2.5,0,5-0.4,7.4-1.3c5.4-2,9.8-5.9,12.2-11.2
		C169.4,58,169.7,52.2,167.7,46.7z M147.4,38.7c2.3,0,4.4,0.5,6.5,1.4c7.7,3.6,11,12.8,7.4,20.4c-1.7,3.7-4.8,6.5-8.7,7.9
		c-3.9,1.4-8,1.2-11.8-0.5c-7.7-3.6-11-12.8-7.4-20.4C135.9,42.2,141.4,38.7,147.4,38.7z"/>
</g>
</svg>
