<?xml version="1.0" encoding="utf-8"?>
<!-- Generator: Adobe Illustrator 22.1.0, SVG Export Plug-In . SVG Version: 6.00 Build 0)  -->
<svg version="1.1" id="Layer_1" xmlns="http://www.w3.org/2000/svg" xmlns:xlink="http://www.w3.org/1999/xlink" x="0px" y="0px"
	 viewBox="0 0 200 200" style="enable-background:new 0 0 200 200;" xml:space="preserve">
<style type="text/css">
	.st0{fill:#FFFFFF;}
</style>
<g>
	<rect x="132.4" y="70.5" class="st0" width="6.9" height="15.7"/>
	<rect x="132.4" y="24.2" class="st0" width="6.9" height="15.7"/>
	<rect x="132.4" y="47.4" class="st0" width="6.9" height="15.7"/>
	<rect x="132.4" y="1.1" class="st0" width="6.9" height="15.7"/>
	<path class="st0" d="M122.2,108.6h-7.4l0.9,2.4c1.5,4.3,3.2,8.3,5,12.1l1.9,3.9l3.4-9.2l-0.3-0.7c-1.1-2.4-2.1-4.9-3-7.4
		L122.2,108.6z"/>
	<path class="st0" d="M129.5,98.8H38C36.4,84.4,25,73.1,10.7,71.5l0-36.2C25,33.7,36.4,22.4,38,8l91.5,0V1.1L3.8,1.1l0,104.6
		l125.7,0V98.8z M31,98.8H10.7l0-20.3C21.2,80,29.5,88.3,31,98.8z M10.7,28.4l0-20.3L31,8C29.5,18.5,21.2,26.9,10.7,28.4z"/>
	<path class="st0" d="M142.3,1.1V8L162,8c1.6,14.4,12.9,25.7,27.3,27.3v36.2c-9.6,1.1-18.1,6.5-23.1,14.9l-0.2,0.5
		c-1.2,5.5-2.6,11-4.3,16.4l-0.7,2.3h35.2V1.1L142.3,1.1z M169,8l20.4,0v20.3C178.8,26.9,170.5,18.5,169,8z M189.3,78.5v20.3H169
		C170.5,88.3,178.8,80,189.3,78.5z"/>
	<path class="st0" d="M103.4,80.1v-4.9c2.4-0.7,4.5-1.8,6.3-3.3c0.3-0.2,0.5-0.5,0.8-0.7c3.4-3.3,4.7-7.7,3.5-12.1
		c-1.2-4.9-5.3-8.8-10.7-10.4V37.9c1.2,0.3,2.3,0.8,3.2,1.6l1.4,1.2l4.5-5.2l-1.4-1.2c-2.1-1.8-4.8-2.9-7.6-3.3v-4.3h-6.9v4.9
		c-1.8,0.6-3.5,1.5-4.8,2.7c-0.2,0.2-0.4,0.4-0.7,0.6c-2.9,2.8-4,6.6-3,10.4c1,4,4.3,7.3,8.5,8.7l0,15.1c-2-0.3-3.9-1.1-5.4-2.3
		l-1.4-1.2l-4.5,5.2l1.4,1.2c2.7,2.3,6.1,3.7,9.8,4v4.2H103.4z M95.9,39.8l0.3-0.3c0.1-0.1,0.2-0.2,0.4-0.3v7
		c-0.9-0.7-1.6-1.7-1.8-2.7C94.3,41.8,95.1,40.5,95.9,39.8z M105.7,66.3c-0.1,0.1-0.3,0.3-0.4,0.4c-0.6,0.5-1.2,0.9-1.9,1.2V56.1
		c2,1.1,3.5,2.8,4,4.7C107.9,62.8,107.4,64.7,105.7,66.3z"/>
	<path class="st0" d="M179.7,150.5c-5.8-3.5-12.3-4.3-18.2-2.1c-2.3,0.9-4.5,2.1-6.3,3.7l-6.5-17.9l-2,3c-0.7,1.1-1.5,2.2-2.2,3.2
		l-0.6,0.8l3.4,9.4c-1-1.7-2.3-3.6-3.7-5.5l-1.3-1.9l-1.5,1.7c-0.8,0.9-1.5,1.8-2.2,2.6l-0.9,1.1l0.8,1.1c5.1,7.2,7.1,12.6,8.2,16
		c0.5,1.6,0.8,3.5,0.9,5.6c0.1,3.2,0.7,6.3,1.8,9.3c2.3,6.3,6.5,11.6,11.9,14.9c2.5,1.5,5.2,2.5,7.9,3c1.2,0.2,2.4,0.3,3.6,0.3
		c2.3,0,4.6-0.4,6.7-1.2c11.6-4.2,17.1-18.7,12.1-32.4C189.3,159,185,153.7,179.7,150.5z M161.1,168.7c0.1-1,0.3-1.9,0.6-2.7
		c0.9-2.5,2.4-4.3,4.4-5c1.1-0.4,2.2-0.5,3.4-0.3c1.1,0.2,2.2,0.6,3.3,1.3c2.8,1.7,5,4.5,6.2,8c1.2,3.3,1.4,6.8,0.5,9.7
		c-0.8,2.7-2.4,4.7-4.6,5.5c-2,0.7-4.4,0.4-6.6-1c-2.8-1.7-5-4.5-6.2-8c-0.9-2.4-1.2-4.9-1-7.3l-1.8-0.2l0,0L161.1,168.7z
		 M155.1,163.7c-0.4,1.3-0.7,2.7-0.9,4.3c-0.1-0.7-0.2-1.5-0.4-2.1l1.3-2.3C155.2,163.7,155.2,163.7,155.1,163.7z"/>
	<path class="st0" d="M126.2,34.4l3.3,4.5V27.4l-0.5-0.5c-7.4-8.1-18-12.8-29-12.8c-21.7,0-39.3,17.6-39.3,39.3
		c0,21.7,17.6,39.3,39.3,39.3c11,0,21.6-4.7,29-12.8l0.5-0.5V68l-3.3,4.5c-6.1,8.4-15.9,13.4-26.2,13.4c-17.9,0-32.4-14.5-32.4-32.4
		S82.1,21,100,21C110.3,21,120.1,26,126.2,34.4z"/>
	<path class="st0" d="M165.6,69.5c-0.3-8.1-7.2-15.2-8-16l-3.8-3.9l-37.3,102.4c-1.9-1.6-4-2.9-6.3-3.7c-5.9-2.2-12.4-1.4-18.2,2.1
		c-5.4,3.2-9.6,8.5-11.9,14.9c-5,13.6,0.5,28.1,12.1,32.4c2.2,0.8,4.4,1.2,6.7,1.2c1.2,0,2.4-0.1,3.6-0.3c2.7-0.5,5.4-1.5,7.9-3
		c5.4-3.2,9.6-8.5,11.9-14.9c1.1-3,1.7-6.2,1.8-9.3c0.1-2.1,0.4-4,0.9-5.6c1.5-4.9,4.6-12.6,14.1-23.5
		C157.9,120.9,165.9,76.4,165.6,69.5z M117.6,168l0-0.1c-0.2-1.4-0.5-2.8-0.9-4.1c0-0.1,0-0.1-0.1-0.1l1.3,2.3
		C117.8,166.6,117.7,167.3,117.6,168z M109.7,176.1c-1.3,3.5-3.5,6.3-6.2,8c-2.3,1.4-4.6,1.7-6.6,1c-4.7-1.7-6.5-8.5-4.1-15.2
		c1.3-3.5,3.5-6.3,6.2-8c1.1-0.7,2.2-1.1,3.3-1.3c0.4-0.1,0.8-0.1,1.2-0.1c0.7,0,1.5,0.1,2.1,0.4c2,0.7,3.6,2.5,4.4,5
		c0.3,0.8,0.5,1.8,0.6,2.8C111,171.1,110.6,173.7,109.7,176.1z M142.1,125.7c-1-2.5-3.4-4.3-6.2-4.3c-0.3,0-0.6,0-0.9,0.1L156.3,63
		c1.2,2,2.3,4.4,2.4,6.8C159,74.9,153.6,104.5,142.1,125.7z M135.9,127.8l0.2,0.2h-0.5C135.6,128,135.7,127.8,135.9,127.8z
		 M131,132.6c1.2,1.3,2.9,2.2,4.9,2.2c0.2,0,0.3,0,0.5-0.1c-0.8,1-1.6,2.1-2.4,3c-4.2,4.8-7.3,9.1-9.5,12.8L131,132.6z"/>
</g>
</svg>
