<?xml version="1.0" encoding="utf-8"?>
<!-- Generator: Adobe Illustrator 22.1.0, SVG Export Plug-In . SVG Version: 6.00 Build 0)  -->
<svg version="1.1" id="Layer_1" xmlns="http://www.w3.org/2000/svg" xmlns:xlink="http://www.w3.org/1999/xlink" x="0px" y="0px"
	 viewBox="0 0 200 200" style="enable-background:new 0 0 200 200;" xml:space="preserve">
<style type="text/css">
	.st0{fill:#FFFFFF;}
</style>
<g>
	<path class="st0" d="M100,111.2c24.2,0,43.9-19.7,43.9-43.9S124.2,23.4,100,23.4S56.1,43,56.1,67.3C56.1,91.5,75.8,111.2,100,111.2
		z M100,29.5c20.8,0,37.8,16.9,37.8,37.8c0,20.8-16.9,37.8-37.8,37.8c-20.8,0-37.8-16.9-37.8-37.8S79.2,29.5,100,29.5z"/>
	<path class="st0" d="M178.5,177.5l-22.9-74.7c1.3-2.6,2.2-6.4,1-11.6c4.4-2.7,7.2-6.3,8.1-10.4c0.9-4.3-0.2-8.9-3.4-13.5
		c3.2-4.6,4.3-9.2,3.4-13.5c-0.9-4.1-3.7-7.7-8.1-10.4c1.5-6.4-0.1-10.6-1.8-13.1s-5-5.5-11.3-6.5c-1-6.4-4-9.7-6.5-11.3
		c-2.5-1.7-6.7-3.3-13.1-1.8c-2.7-4.4-6.3-7.2-10.4-8.1c-4.3-0.9-8.9,0.2-13.5,3.4c-4.6-3.2-9.2-4.3-13.5-3.4
		c-4.1,0.9-7.7,3.7-10.4,8.1c-6.4-1.5-10.6,0.1-13.1,1.8s-5.5,5-6.5,11.3c-6.4,1-9.7,4-11.3,6.5c-1.7,2.5-3.3,6.7-1.8,13.1
		c-4.4,2.7-7.2,6.3-8.1,10.4c-0.9,4.3,0.2,8.9,3.4,13.5c-3.2,4.6-4.3,9.2-3.4,13.5c0.9,4.1,3.7,7.7,8.1,10.4
		c-1.2,5.3-0.3,9.1,1,11.7l-22.9,74.7c-0.4,1.2,0,2.5,1,3.3c0.9,0.8,2.3,0.9,3.4,0.4l31.7-16.2l17.1,31.2c0.5,1,1.6,1.6,2.7,1.6
		c0.1,0,0.2,0,0.3,0c1.2-0.1,2.3-1,2.6-2.2l19.6-64l19.6,64c0.4,1.2,1.4,2,2.6,2.2c0.1,0,0.2,0,0.3,0c1.1,0,2.2-0.6,2.7-1.6
		l17.2-31.2l31.7,16.2c1.1,0.6,2.4,0.4,3.4-0.4C178.5,180,178.8,178.7,178.5,177.5z M41.4,79.4c-0.8-3.8,1.5-7.7,3.6-10.2
		c0.9-1.1,0.9-2.8,0-3.9c-2.1-2.6-4.4-6.4-3.6-10.2c0.8-3.7,4.3-6.1,7.1-7.4c1.4-0.7,2.1-2.3,1.6-3.7c-1-3-1.7-7.2,0.3-10.2
		s6.1-3.9,9.2-4c1.6-0.1,2.8-1.3,2.9-2.9c0.2-3.1,1-7.2,4-9.2s7.2-1.3,10.2-0.3c1.5,0.5,3.1-0.2,3.7-1.6c1.4-2.8,3.8-6.3,7.4-7.1
		c3.8-0.8,7.7,1.5,10.2,3.6c1.1,0.9,2.8,0.9,3.9,0c2.6-2.1,6.4-4.4,10.2-3.6c3.7,0.8,6.1,4.3,7.4,7.1c0.7,1.4,2.3,2.1,3.7,1.6
		c3-1,7.2-1.7,10.2,0.3s3.9,6.1,4,9.2c0.1,1.6,1.3,2.8,2.9,2.9c3.1,0.2,7.2,1,9.2,4c2.1,3,1.3,7.2,0.3,10.2
		c-0.5,1.5,0.2,3.1,1.6,3.7c2.8,1.4,6.3,3.8,7.1,7.4c0.8,3.8-1.5,7.7-3.6,10.2c-0.9,1.1-0.9,2.8,0,3.9c2.1,2.6,4.4,6.4,3.6,10.2
		c-0.8,3.7-4.3,6.1-7.1,7.4c-1.4,0.7-2.1,2.3-1.6,3.7c1,3,1.7,7.2-0.3,10.2s-6.1,3.9-9.2,4c-1.6,0.1-2.8,1.3-2.9,2.9
		c-0.2,3.1-1,7.2-4,9.2s-7.2,1.3-10.2,0.3c-1.5-0.5-3.1,0.2-3.7,1.6c-1.4,2.8-3.8,6.3-7.4,7.1c-3.8,0.8-7.7-1.5-10.2-3.6
		c-0.6-0.5-1.3-0.7-2-0.7s-1.4,0.2-2,0.7c-2.6,2.1-6.4,4.4-10.2,3.6c-3.7-0.8-6.1-4.3-7.4-7.1c-0.7-1.4-2.3-2.1-3.7-1.6
		c-3,1-7.2,1.7-10.2-0.3s-3.9-6.1-4-9.2c-0.1-1.6-1.3-2.8-2.9-2.9c-3.1-0.2-7.2-1-9.2-4S49,93.5,50,90.5c0.5-1.5-0.2-3.1-1.6-3.7
		C45.6,85.5,42.2,83.1,41.4,79.4z M76.6,186.8l-15.1-27.4c-0.8-1.5-2.6-2-4.1-1.3l-27.9,14.3l19.7-64.3c1.8,1.2,4.2,2.1,7.3,2.6
		c1,6.4,4,9.7,6.5,11.3c2.5,1.7,6.7,3.3,13.1,1.8c2.7,4.4,6.3,7.2,10.4,8.1c2.3,0.5,4.6,0.4,7-0.3L76.6,186.8z M142.6,158.1
		c-1.5-0.8-3.3-0.2-4.1,1.3l-15.1,27.4l-16.9-55.2c1.4,0.4,2.7,0.6,4.1,0.6c1,0,2-0.1,2.9-0.3c4.1-0.9,7.7-3.7,10.4-8.1
		c6.4,1.5,10.6-0.1,13.1-1.8c2.5-1.7,5.5-5,6.5-11.3c3.1-0.5,5.5-1.5,7.3-2.6l19.7,64.3L142.6,158.1z"/>
	<path class="st0" d="M89.6,86.8c-1.7,0-3.1,1.4-3.1,3.1s1.4,3.1,3.1,3.1h20.7c1.7,0,3.1-1.4,3.1-3.1s-1.4-3.1-3.1-3.1H103V47.7h7.3
		c1.7,0,3.1-1.4,3.1-3.1c0-1.7-1.4-3.1-3.1-3.1H89.6c-1.7,0-3.1,1.4-3.1,3.1c0,1.7,1.4,3.1,3.1,3.1h7.3v39.1H89.6z"/>
</g>
</svg>
