<?xml version="1.0" encoding="utf-8"?>
<!-- Generator: Adobe Illustrator 22.1.0, SVG Export Plug-In . SVG Version: 6.00 Build 0)  -->
<svg version="1.1" id="Layer_1" xmlns="http://www.w3.org/2000/svg" xmlns:xlink="http://www.w3.org/1999/xlink" x="0px" y="0px"
	 viewBox="0 0 200 200" style="enable-background:new 0 0 200 200;" xml:space="preserve">
<style type="text/css">
	.st0{fill:#FFFFFF;}
</style>
<g>
	<g>
		<g>
			<g>
				<g>
					<path class="st0" d="M68.6,196c-1.2,0-2.3-1-2.3-2.3V81.3c0-6.7,5.5-12.2,12.2-12.2h45.7c3.3,0,6.4-1.6,8.4-4.3l4.5-6.3
						c0.3-0.4,0.2-0.7,0.1-0.9c-0.1-0.2-0.3-0.5-0.8-0.5H59.5v0.7c0,7.3-5.7,12.4-13.9,12.4c-8.2,0-13.9-5.1-13.9-12.4v-0.7h-5.9
						c-10.6,0-19.2,8.6-19.2,19.2v41.8c0,3.2,1.5,6.2,4,8.1l10.1,7.6c1,0.7,1.2,2.2,0.4,3.2c-0.7,1-2.2,1.2-3.2,0.4l-10.1-7.6
						c-3.6-2.8-5.8-7.1-5.8-11.7V76.3c0-13.1,10.6-23.7,23.7-23.7h8.2c1.2,0,2.3,1,2.3,2.3v2.9c0,5.8,5.1,7.9,9.4,7.9
						c4.3,0,9.4-2.1,9.4-7.9v-2.9c0-1.2,1-2.3,2.3-2.3h79.2c2,0,3.8,1.1,4.8,2.9c0.9,1.8,0.8,3.9-0.4,5.6l-4.5,6.3
						c-2.8,3.9-7.3,6.2-12,6.2H78.6c-4.2,0-7.7,3.5-7.7,7.7v112.5C70.9,195,69.9,196,68.6,196z"/>
				</g>
				<g>
					<path class="st0" d="M21.1,196c-1.2,0-2.3-1-2.3-2.3V87c0-1.2,1-2.3,2.3-2.3c1.2,0,2.3,1,2.3,2.3v106.8
						C23.4,195,22.4,196,21.1,196z"/>
				</g>
				<g>
					<path class="st0" d="M43.8,196c-1.2,0-2.3-1-2.3-2.3v-66.2c0-1.2,1-2.3,2.3-2.3c1.2,0,2.3,1,2.3,2.3v66.2
						C46,195,45,196,43.8,196z"/>
				</g>
				<g>
					<path class="st0" d="M43.8,46.5c-11.7,0-21.3-9.5-21.3-21.3S32.1,4,43.8,4S65,13.5,65,25.2S55.5,46.5,43.8,46.5z M43.8,8.5
						C34.5,8.5,27,16,27,25.2S34.5,42,43.8,42c9.2,0,16.8-7.5,16.8-16.8S53,8.5,43.8,8.5z"/>
				</g>
			</g>
		</g>
	</g>
	<g>
		<g>
			<g>
				<path class="st0" d="M132.3,196c-14.4,0-28-5.6-38.2-15.8c-10.2-10.2-15.8-23.8-15.8-38.2c0-14.4,5.6-28,15.8-38.2
					c10.2-10.2,23.8-15.8,38.2-15.8c1.2,0,2.3,1,2.3,2.3v49.6h49.6c1.2,0,2.3,1,2.3,2.3c0,14.4-5.6,28-15.8,38.2
					C160.4,190.4,146.8,196,132.3,196z M130.1,92.4c-12.4,0.6-24,5.6-32.8,14.5c-9.4,9.4-14.5,21.8-14.5,35.1
					c0,13.2,5.2,25.7,14.5,35.1c9.4,9.4,21.8,14.5,35.1,14.5c13.2,0,25.7-5.2,35.1-14.5c8.8-8.8,13.9-20.4,14.5-32.8h-49.5
					c-1.2,0-2.3-1-2.3-2.3V92.4z"/>
			</g>
			<g>
				<path class="st0" d="M195.7,132.7h-51.8c-1.2,0-2.3-1-2.3-2.3V78.6c0-1.2,1-2.3,2.3-2.3c29.8,0,54.1,24.3,54.1,54.1
					C197.9,131.7,196.9,132.7,195.7,132.7z M146.1,128.2h47.3c-1.1-25.6-21.7-46.1-47.3-47.3V128.2z"/>
			</g>
			<g>
				<path class="st0" d="M95.7,180.8c-0.6,0-1.2-0.2-1.6-0.7c-0.9-0.9-0.9-2.3,0-3.2l36.7-36.7c0.9-0.9,2.3-0.9,3.2,0
					c0.9,0.9,0.9,2.3,0,3.2l-36.7,36.7C96.8,180.6,96.3,180.8,95.7,180.8z"/>
			</g>
		</g>
		<g>
			<path class="st0" d="M175,91.2h-31.1c-1.2,0-2.3-1-2.3-2.3c0-1.2,1-2.3,2.3-2.3H175c1.2,0,2.3,1,2.3,2.3
				C177.2,90.2,176.2,91.2,175,91.2z"/>
		</g>
		<g>
			<path class="st0" d="M185.3,101.6h-41.5c-1.2,0-2.3-1-2.3-2.3c0-1.2,1-2.3,2.3-2.3h41.5c1.2,0,2.3,1,2.3,2.3
				C187.6,100.6,186.6,101.6,185.3,101.6z"/>
		</g>
		<g>
			<path class="st0" d="M191.4,111.9h-47.5c-1.2,0-2.3-1-2.3-2.3c0-1.2,1-2.3,2.3-2.3h47.5c1.2,0,2.3,1,2.3,2.3
				C193.6,110.9,192.6,111.9,191.4,111.9z"/>
		</g>
		<g>
			<path class="st0" d="M194.7,122.3h-50.8c-1.2,0-2.3-1-2.3-2.3c0-1.2,1-2.3,2.3-2.3h50.8c1.2,0,2.3,1,2.3,2.3
				C196.9,121.3,195.9,122.3,194.7,122.3z"/>
		</g>
	</g>
</g>
</svg>
