<?xml version="1.0" encoding="utf-8"?>
<!-- Generator: Adobe Illustrator 22.1.0, SVG Export Plug-In . SVG Version: 6.00 Build 0)  -->
<svg version="1.1" id="Layer_1" xmlns="http://www.w3.org/2000/svg" xmlns:xlink="http://www.w3.org/1999/xlink" x="0px" y="0px"
	 viewBox="0 0 200 200" style="enable-background:new 0 0 200 200;" xml:space="preserve">
<style type="text/css">
	.st0{fill:#FFFFFF;}
</style>
<g>
	<g>
		<path class="st0" d="M191.1,138h-65v-6h65L191,21.6L8.9,21.7L9,132.1l64.9-0.1v6h-65c-3.2,0-5.9-2.6-5.9-5.9V21.6
			c0-3.2,2.6-5.9,5.9-5.9h182.2c3.2,0,5.9,2.6,5.9,5.9v110.5C197,135.4,194.4,138,191.1,138z"/>
	</g>
	<g>
		<path class="st0" d="M100,164.2c-16.1,0-29.1-13.1-29.1-29.1S83.9,106,100,106s29.1,13.1,29.1,29.1S116.1,164.2,100,164.2z
			 M100,111.9c-12.8,0-23.2,10.4-23.2,23.2s10.4,23.2,23.2,23.2s23.2-10.4,23.2-23.2S112.8,111.9,100,111.9z"/>
	</g>
	<g>
		<path class="st0" d="M100,149.6c-8,0-14.5-6.5-14.5-14.5s6.5-14.5,14.5-14.5s14.5,6.5,14.5,14.5S108,149.6,100,149.6z M100,126.6
			c-4.7,0-8.5,3.8-8.5,8.5c0,4.7,3.8,8.5,8.5,8.5s8.5-3.8,8.5-8.5C108.5,130.4,104.7,126.6,100,126.6z"/>
	</g>
	<g>
		<path class="st0" d="M73.8,110.1c-0.8,0-1.5-0.3-2.1-0.9c-1.2-1.2-1.2-3.1,0-4.2c7.6-7.6,17.6-11.7,28.3-11.7s20.8,4.2,28.3,11.7
			c1.2,1.2,1.2,3.1,0,4.2c-1.2,1.2-3.1,1.2-4.2,0c-6.4-6.4-15-10-24.1-10s-17.7,3.5-24.1,10C75.3,109.8,74.6,110.1,73.8,110.1z"/>
	</g>
	<g>
		<path class="st0" d="M128.3,184.2l-21.8-21.8c-1.2-1.2-1.2-3.1,0-4.2c1.2-1.2,3.1-1.2,4.2,0l11.6,11.6v-12.5h12.5l-11.6-11.6
			c-1.2-1.2-1.2-3.1,0-4.2c1.2-1.2,3.1-1.2,4.2,0l21.8,21.8h-20.9L128.3,184.2L128.3,184.2z"/>
	</g>
	<g>
		<path class="st0" d="M71.7,184.2v-20.9H50.8l21.8-21.8c1.2-1.2,3.1-1.2,4.2,0c1.2,1.2,1.2,3.1,0,4.2l-11.6,11.6h12.5v12.5
			l11.6-11.6c1.2-1.2,3.1-1.2,4.2,0c1.2,1.2,1.2,3.1,0,4.2L71.7,184.2z"/>
	</g>
	<g>
		<path class="st0" d="M140.5,70.2H60.4c-1.6,0-3-1.3-3-3c0-1.6,1.3-3,3-3h80.1c1.6,0,3,1.3,3,3C143.5,68.9,142.1,70.2,140.5,70.2z"
			/>
	</g>
	<g>
		<path class="st0" d="M154.5,51.5H46.2c-1.6,0-3-1.3-3-3s1.3-3,3-3h108.3c1.6,0,3,1.3,3,3S156.2,51.5,154.5,51.5z"/>
	</g>
</g>
</svg>
