<?xml version="1.0" encoding="utf-8"?>
<!-- Generator: Adobe Illustrator 22.1.0, SVG Export Plug-In . SVG Version: 6.00 Build 0)  -->
<svg version="1.1" id="Layer_1" xmlns="http://www.w3.org/2000/svg" xmlns:xlink="http://www.w3.org/1999/xlink" x="0px" y="0px"
	 viewBox="0 0 200 200" style="enable-background:new 0 0 200 200;" xml:space="preserve">
<style type="text/css">
	.st0{fill:#FFFFFF;}
</style>
<g>
	<path class="st0" d="M197,31.1C197,31.1,197,31.1,197,31.1c0-0.1,0-0.2,0-0.2c0-0.2,0-0.4,0-0.6c0-0.1,0-0.1,0-0.2
		c-0.1-0.2-0.1-0.5-0.2-0.7c0,0,0-0.1,0-0.1c0,0-0.1-0.1-0.1-0.1c-0.1-0.2-0.2-0.3-0.3-0.5c0,0,0-0.1-0.1-0.1c0,0,0,0,0,0
		c-0.2-0.2-0.3-0.4-0.5-0.5c0,0-0.1,0-0.1,0c0,0-0.1-0.1-0.1-0.1c-0.2-0.1-0.4-0.2-0.6-0.3c0,0-0.1,0-0.1-0.1c0,0-0.1,0-0.1,0
		c0,0-0.1,0-0.1,0c-0.2,0-0.3-0.1-0.5-0.1c0,0,0,0,0,0c-0.1,0-0.3,0-0.4,0c-0.5,0-1,0.1-1.3,0.2L44.4,77.7c-1.3,0.4-2.2,1.6-2.4,3
		c-0.2,1.4,0.5,2.7,1.7,3.4l25.7,15.8l4.3,46.9c0,0.2,0,0.3,0.1,0.4c0,0,0,0.1,0,0.1c0.1,0.2,0.1,0.4,0.2,0.6c0,0,0,0,0,0.1
		c0,0,0,0,0,0.1c0.1,0.3,0.3,0.5,0.5,0.8c0,0,0,0,0,0c0.4,0.5,1,0.8,1.6,1c0,0,0.1,0,0.1,0c0,0,0.1,0,0.1,0c0.3,0.1,0.6,0.1,0.8,0.1
		c0,0,0,0,0,0s0,0,0,0c0.3,0,0.6,0,0.8-0.1c0.1,0,0.2-0.1,0.3-0.1c0.1,0,0.3-0.1,0.4-0.1l40.5-19.3l20.4,13c0.6,0.4,1.2,0.6,1.9,0.6
		c0.3,0,0.7,0,1-0.1c1-0.3,1.8-1,2.2-1.9l51.7-109.1l0.4,0l0.1-1.1l0-0.1c0-0.1,0-0.2,0-0.3C197,31.3,197,31.2,197,31.1z
		 M104.6,112.7L183,44.6l-43,90.7L104.6,112.7z M157.2,46.9L72.9,93.7L53.8,82L157.2,46.9z M96.3,110.5
		C96.3,110.5,96.3,110.5,96.3,110.5c-0.2,0.2-0.3,0.3-0.4,0.5c-0.1,0.1-0.1,0.1-0.2,0.2c0,0,0,0.1-0.1,0.1l-15.8,24.7l-3.3-36.1
		l89-49.4L96.3,110.5z M99.7,118l12.5,7.9l-25.3,12L99.7,118z"/>
	<path class="st0" d="M136.5,147.2c-1.7-0.9-3.9-0.2-4.8,1.5l-10.4,20.2c-0.9,1.7-0.2,3.9,1.5,4.8c0.5,0.3,1.1,0.4,1.6,0.4
		c1.3,0,2.5-0.7,3.2-1.9l10.4-20.2C138.9,150.2,138.3,148.1,136.5,147.2z"/>
	<path class="st0" d="M90.3,157.2c-0.8-0.5-1.7-0.7-2.7-0.5c-0.9,0.2-1.7,0.8-2.2,1.6l-7.8,12.2c-1.1,1.6-0.6,3.8,1.1,4.9
		c0.6,0.4,1.2,0.6,1.9,0.6c1.2,0,2.3-0.6,3-1.6l7.8-12.2C92.4,160.5,91.9,158.3,90.3,157.2z"/>
	<path class="st0" d="M58,139.7l-15.1,9.7c-1.6,1.1-2.1,3.3-1.1,4.9c0.7,1,1.8,1.6,3,1.6c0.7,0,1.3-0.2,1.9-0.6l15.1-9.7
		c1.6-1.1,2.1-3.3,1.1-4.9C61.9,139.1,59.7,138.6,58,139.7z"/>
	<path class="st0" d="M34.4,88.1c-0.6-1.9-2.6-2.9-4.5-2.3L6.8,93.4C4.9,94,3.9,96,4.5,97.9c0.5,1.5,1.8,2.4,3.4,2.4
		c0.4,0,0.7-0.1,1.1-0.2l23.2-7.6C34,91.9,35.1,89.9,34.4,88.1z"/>
	<path class="st0" d="M57.3,108.2c-0.5-0.8-1.2-1.4-2.1-1.7c-0.9-0.3-1.9-0.2-2.7,0.3l-20.2,10.9c-1.7,0.9-2.4,3.1-1.4,4.8
		c0.6,1.2,1.8,1.9,3.1,1.9c0.6,0,1.2-0.1,1.7-0.4L55.8,113C57.6,112.1,58.2,109.9,57.3,108.2z"/>
	<path class="st0" d="M111.9,140.9c-0.8-0.4-1.8-0.5-2.7-0.2c-0.9,0.3-1.6,0.9-2.1,1.8l-8.3,16.2c-0.9,1.7-0.2,3.9,1.5,4.8
		c0.5,0.3,1.1,0.4,1.6,0.4c1.3,0,2.5-0.7,3.2-1.9l8.3-16.2C114.4,143.9,113.7,141.8,111.9,140.9z"/>
</g>
</svg>
