<?xml version="1.0" encoding="utf-8"?>
<!-- Generator: Adobe Illustrator 22.1.0, SVG Export Plug-In . SVG Version: 6.00 Build 0)  -->
<svg version="1.1" id="Layer_1" xmlns="http://www.w3.org/2000/svg" xmlns:xlink="http://www.w3.org/1999/xlink" x="0px" y="0px"
	 viewBox="0 0 200 176" style="enable-background:new 0 0 200 176;" xml:space="preserve">
<style type="text/css">
	.st0{fill:#FFFFFF;}
</style>
<g>
	<path class="st0" d="M63.7,35.2H17.8c-1.3,0-2.3,1-2.3,2.3v18.2c0,1.3,1,2.3,2.3,2.3c1.3,0,2.3-1,2.3-2.3V39.8h41.3v15.9
		c0,1.3,1,2.3,2.3,2.3s2.3-1,2.3-2.3V37.5C66,36.3,64.9,35.2,63.7,35.2z"/>
	<path class="st0" d="M63.7,68.5H17.8c-1.3,0-2.3,1-2.3,2.3s1,2.3,2.3,2.3h45.8c1.3,0,2.3-1,2.3-2.3S64.9,68.5,63.7,68.5z"/>
	<path class="st0" d="M63.7,80.5H17.8c-1.3,0-2.3,1-2.3,2.3s1,2.3,2.3,2.3h45.8c1.3,0,2.3-1,2.3-2.3S64.9,80.5,63.7,80.5z"/>
	<path class="st0" d="M63.7,92.5H17.8c-1.3,0-2.3,1-2.3,2.3s1,2.3,2.3,2.3h45.8c1.3,0,2.3-1,2.3-2.3S64.9,92.5,63.7,92.5z"/>
	<path class="st0" d="M197.8,162.6l-22.1-22.1l13.2-13.2c0.6-0.6,0.8-1.4,0.6-2.2c-0.2-0.8-0.8-1.4-1.6-1.6l-11-2.9V30.8
		c0-1.3-1-2.3-2.3-2.3H151V4.9c0-1.3-1-2.3-2.3-2.3H4.3C3,2.6,2,3.6,2,4.9V124c0,1.3,1,2.3,2.3,2.3h23.6v23.6c0,1.3,1,2.3,2.3,2.3
		h115l2.9,11c0.2,0.8,0.8,1.4,1.6,1.6c0.8,0.2,1.6,0,2.2-0.6l13.2-13.2l22.1,22.1c0.4,0.4,1,0.7,1.6,0.7c0.6,0,1.2-0.2,1.6-0.7
		l7.2-7.2C198.7,165,198.7,163.5,197.8,162.6z M151,33.1h21.3v86.2l-21.3-5.7V33.1z M6.6,7.2h139.9v13.5H6.6V7.2z M6.6,121.7V25.2
		h139.9v5.5c0,0,0,0,0,0s0,0,0,0v81.6l-9-2.4c-0.8-0.2-1.6,0-2.2,0.6c-0.6,0.6-0.8,1.4-0.6,2.2l2.4,9H6.6z M32.5,147.7v-21.3h105.8
		l5.7,21.3H32.5z M189,168.2l-22.1-22.1c-0.4-0.4-1-0.7-1.6-0.7c-0.6,0-1.2,0.2-1.6,0.7l-12.1,12.1l-11.5-42.8l42.8,11.5l-12.1,12.1
		c-0.9,0.9-0.9,2.3,0,3.2l22.1,22.1L189,168.2z"/>
</g>
</svg>
